<svg width="19" height="24" viewBox="0 0 19 24" fill="none" xmlns="http://www.w3.org/2000/svg">
<path fill-rule="evenodd" clip-rule="evenodd" d="M18.0227 13.2461C18.2832 13.2461 18.414 13.5608 18.2297 13.7451L8.14673 23.8291C8.0356 23.9402 7.88603 23.9999 7.73364 24H0.294191C0.034012 23.9996 -0.096005 23.6851 0.0881368 23.501L10.1711 13.418C10.2791 13.31 10.4286 13.2493 10.5842 13.2461H18.0227ZM7.73169 0C7.88735 0.00317703 8.03677 0.0638555 8.14478 0.171875L18.2278 10.2549C18.412 10.4391 18.282 10.7537 18.0217 10.7539H10.5823C10.4299 10.7538 10.2803 10.6941 10.1692 10.583L0.0861837 0.499023C-0.0980706 0.314755 0.0327175 1.21359e-08 0.293215 0H7.73169Z" fill="url(#paint0_linear_27_1369)"/>
<defs>
<linearGradient id="paint0_linear_27_1369" x1="9.15785" y1="0" x2="9.15785" y2="24" gradientUnits="userSpaceOnUse">
<stop stop-color="#9945FF"/>
<stop offset="1" stop-color="#14F195"/>
</linearGradient>
</defs>
</svg>
